<?xml version="1.0" encoding="UTF-8"?>
<svg width="20px" height="30px" viewBox="0 0 20 30" version="1.1" xmlns="http://www.w3.org/2000/svg" xmlns:xlink="http://www.w3.org/1999/xlink">
    <!-- Generator: Sketch 50.2 (55047) - http://www.bohemiancoding.com/sketch -->
    <title>Combined Shape</title>
    <desc>Created with Sketch.</desc>
    <defs></defs>
    <g id="Page-2" stroke="none" stroke-width="1" fill="none" fill-rule="evenodd">
        <g id="wires-copy-3" transform="translate(-32.000000, -13.000000)" fill="#FFFFFF">
            <path d="M51.337,27.7754504 C50.1016609,27.2631072 48.6998293,27 47.15,27 C43.068,27 40.572,29.392 40.572,32.278 C40.572,38.804 50.556,36.698 50.556,39.714 C50.556,40.728 49.594,41.638 47.54,41.638 C45.148,41.638 43.25,40.546 42.028,39.272 L40.0808108,42.043 L32.337,42.043 L32.337,13.043 L51.337,13.043 L51.337,27.7754504 Z M51.337,31.7404106 L51.337,34.9695379 C48.4039137,33.6133585 44.368,33.729991 44.368,31.992 C44.368,30.952 45.252,30.276 46.812,30.276 C48.3700562,30.276 50.0088795,30.7404114 51.337,31.7404106 Z" id="Combined-Shape"></path>
        </g>
    </g>
</svg>