<?xml version="1.0" encoding="UTF-8"?>
<svg width="20px" height="30px" viewBox="0 0 20 30" version="1.1" xmlns="http://www.w3.org/2000/svg" xmlns:xlink="http://www.w3.org/1999/xlink">
    <!-- Generator: Sketch 52.2 (67145) - http://www.bohemiancoding.com/sketch -->
    <title>logo</title>
    <desc>Created with Sketch.</desc>
    <g id="Page-1" stroke="none" stroke-width="1" fill="none" fill-rule="evenodd">
        <g id="logo" fill="#00283E" fill-rule="nonzero">
            <path d="M19.337,14.7754504 C18.1016609,14.2631072 16.6998293,14 15.15,14 C11.068,14 8.572,16.392 8.572,19.278 C8.572,25.804 18.556,23.698 18.556,26.714 C18.556,27.728 17.594,28.638 15.54,28.638 C13.148,28.638 11.25,27.546 10.028,26.272 L8.0808108,29.043 L0.337,29.043 L0.337,0.043 L19.337,0.043 L19.337,14.7754504 Z M19.337,18.7404106 L19.337,21.9695379 C16.4039137,20.6133585 12.368,20.729991 12.368,18.992 C12.368,17.952 13.252,17.276 14.812,17.276 C16.3700562,17.276 18.0088795,17.7404114 19.337,18.7404106 Z" id="Combined-Shape"></path>
        </g>
    </g>
</svg>