<?xml version="1.0" encoding="UTF-8"?>
<svg width="333px" height="657px" viewBox="0 0 333 657" version="1.1" xmlns="http://www.w3.org/2000/svg" xmlns:xlink="http://www.w3.org/1999/xlink">
    <!-- Generator: Sketch 50.2 (55047) - http://www.bohemiancoding.com/sketch -->
    <title>Group 2</title>
    <desc>Created with Sketch.</desc>
    <defs></defs>
    <g id="Page-2" stroke="none" stroke-width="1" fill="none" fill-rule="evenodd">
        <g id="wires" transform="translate(-41.000000, -39.000000)">
            <g id="Group-2" transform="translate(41.000000, 40.000000)">
                <path d="M102.046,362.818 L94.094,362.818 L94.094,325.466 L111.566,325.466 C119.686,325.466 124.11,330.954 124.11,337.506 C124.11,344.002 119.63,349.49 111.566,349.49 L102.046,349.49 L102.046,362.818 Z M110.446,342.49 C113.582,342.49 115.99,340.586 115.99,337.506 C115.99,334.37 113.582,332.466 110.446,332.466 L102.046,332.466 L102.046,342.49 L110.446,342.49 Z M186.282,362.818 L177.266,362.818 L174.914,356.49 L158.898,356.49 L156.546,362.818 L147.53,362.818 L161.922,325.466 L171.89,325.466 L186.282,362.818 Z M172.73,349.49 L166.906,333.418 L161.082,349.49 L172.73,349.49 Z M231.262,363.49 C219.894,363.49 214.406,357.106 214.406,347.866 L214.406,325.466 L222.47,325.466 L222.47,347.642 C222.47,352.85 225.494,356.434 231.262,356.434 C237.03,356.434 239.998,352.85 239.998,347.642 L239.998,325.466 L248.118,325.466 L248.118,347.866 C248.118,357.106 242.63,363.49 231.262,363.49 Z M305.474,362.818 L281.674,362.818 L281.674,325.466 L289.682,325.466 L289.682,355.818 L305.474,355.818 L305.474,362.818 Z M345.302,362.818 L337.35,362.818 L337.35,325.466 L345.302,325.466 L345.302,362.818 Z M392.522,363.49 C385.298,363.49 380.146,361.082 376.618,357.554 L380.986,351.338 C383.618,354.082 387.706,356.434 392.858,356.434 C397.282,356.434 399.354,354.474 399.354,352.29 C399.354,345.794 377.85,350.33 377.85,336.274 C377.85,330.058 383.226,324.906 392.018,324.906 C397.954,324.906 402.882,326.698 406.578,330.114 L402.154,336.05 C399.13,333.25 395.098,331.962 391.29,331.962 C387.93,331.962 386.026,333.418 386.026,335.658 C386.026,341.538 407.474,337.562 407.474,351.506 C407.474,358.338 402.546,363.49 392.522,363.49 Z M455.198,362.818 L447.19,362.818 L447.19,332.466 L436.27,332.466 L436.27,325.466 L466.062,325.466 L466.062,332.466 L455.198,332.466 L455.198,362.818 Z M532.49,362.818 L523.474,362.818 L521.122,356.49 L505.106,356.49 L502.754,362.818 L493.738,362.818 L508.13,325.466 L518.098,325.466 L532.49,362.818 Z M518.938,349.49 L513.114,333.418 L507.29,349.49 L518.938,349.49 Z" id="PAULISTA" fill="#FFFFFF" transform="translate(313.292000, 344.198000) rotate(-90.000000) translate(-313.292000, -344.198000) "></path>
                <polyline id="Path-4" stroke="#FFFFFF" opacity="0.547042411" points="332.382123 118.173278 332.382123 0.431570699 0.993591471 0.431570699 0.993591471 654.979853 332.382123 654.979853 332.382123 572.931955"></polyline>
            </g>
        </g>
    </g>
</svg>